<?xml version="1.0" standalone="no"?>
<!DOCTYPE svg PUBLIC "-//W3C//DTD SVG 1.1//EN" "http://www.w3.org/Graphics/SVG/1.1/DTD/svg11.dtd" >
<svg xmlns="http://www.w3.org/2000/svg">
<metadata></metadata>
<defs>
<font id="true-thaimedium_spregular" horiz-adv-x="0" >
<font-face units-per-em="2048" ascent="1638" descent="-410" />
<missing-glyph horiz-adv-x="553" />
<glyph horiz-adv-x="471" />
<glyph unicode=" "  horiz-adv-x="553" />
<glyph unicode="&#x09;" horiz-adv-x="553" />
<glyph unicode="&#xa0;" horiz-adv-x="553" />
<glyph unicode="!" horiz-adv-x="350" d="M100 0v150h150v-150h-150zM111 668v297h129v-297l-35 -420h-60z" />
<glyph unicode="&#x22;" horiz-adv-x="575" d="M147 616v349h93v-349h-93zM336 616v349h92v-349h-92z" />
<glyph unicode="#" horiz-adv-x="752" d="M45 279v92h145l29 202h-137v93h149l39 276h95l-41 -276h168l38 276h95l-39 -276h121v-93h-134l-28 -202h123v-92h-138l-38 -279h-93l39 279h-168l-39 -279h-94l39 279h-131zM285 371h166l28 202h-168z" />
<glyph unicode="$" horiz-adv-x="752" d="M33 295h117q6 -180 190 -209v356q-152 37 -211 90q-68 60 -68 173q0 120 80 198t199 84v90h74v-90q213 -26 266 -268h-115q-28 133 -151 158v-334l82 -21q73 -18 131 -69q82 -74 82 -183q0 -127 -81 -203t-214 -86v-111h-74v111q-133 12 -214 93.5t-93 220.5zM184 717 q0 -66 43 -103q33 -28 113 -51v318q-156 -19 -156 -164zM414 86q174 14 174 172q0 70 -49 111q-39 30 -125 55v-338z" />
<glyph unicode="%" horiz-adv-x="1352" d="M125 684q0 274 219 274q215 0 215 -270q0 -117 -49 -188q-57 -84 -166 -84q-219 0 -219 268zM225 686q0 -194 115 -194q119 0 119 196q0 197 -115 197q-119 0 -119 -199zM254 -28l727 1005h115l-725 -1005h-117zM793 252q0 274 219 274q215 0 215 -270q0 -117 -49 -188 q-58 -81 -166 -81q-219 0 -219 265zM893 254q0 -197 115 -197q118 0 118 199q0 195 -114 195q-119 0 -119 -197z" />
<glyph unicode="&#x26;" horiz-adv-x="852" d="M45 248q0 174 225 291q-37 53 -71.5 108t-34.5 119q0 84 58.5 141.5t158.5 57.5q96 0 164.5 -51.5t68.5 -145.5q0 -145 -180 -250l174 -213q27 70 31 150h111q-11 -123 -66 -238l188 -217h-151l-103 121q-88 -134 -272 -134q-170 0 -248 99q-53 70 -53 162zM166 248 q0 -70 55 -116t129 -46q129 0 205 115l-221 266q-84 -47 -117 -84q-51 -55 -51 -135zM279 762q0 -53 92 -168q129 78 129 168q0 43 -30 72.5t-81 29.5q-45 0 -77.5 -26.5t-32.5 -75.5z" />
<glyph unicode="'" horiz-adv-x="375" d="M141 616v349h92v-349h-92z" />
<glyph unicode="(" horiz-adv-x="350" d="M63 365q0 344 213 622h89q-181 -282 -181 -622q0 -345 181 -630h-89q-213 326 -213 630z" />
<glyph unicode=")" horiz-adv-x="350" d="M-11 -265q177 279 177 621t-177 631h85q213 -330 213 -631q0 -342 -213 -621h-85z" />
<glyph unicode="*" horiz-adv-x="475" d="M33 801l24 65l144 -53v152h71v-152l144 53l26 -65l-145 -51l88 -123l-55 -41l-94 129l-86 -129l-62 41l88 123z" />
<glyph unicode="+" horiz-adv-x="811" d="M66 297v90h294v297h91v-297h294v-90h-294v-297h-91v297h-294z" />
<glyph unicode="," horiz-adv-x="375" d="M113 0v150h149v-136q0 -167 -149 -210v68q84 29 80 128h-80z" />
<glyph unicode="-" horiz-adv-x="526" d="M68 322v108h391v-108h-391z" />
<glyph unicode="." horiz-adv-x="375" d="M113 0v150h149v-150h-149z" />
<glyph unicode="/" horiz-adv-x="451" d="M-22 -19l397 1006h100l-401 -1006h-96z" />
<glyph unicode="0" horiz-adv-x="752" d="M57 471q0 217 47 324q72 163 271 163q200 0 272 -163q47 -107 47 -324t-47 -324q-72 -160 -272 -160q-199 0 -271 160q-47 107 -47 324zM178 471q0 -166 25 -246q45 -139 172 -139q129 0 174 139q24 80 24 246t-24 246q-45 139 -174 139q-127 0 -172 -139 q-25 -80 -25 -246z" />
<glyph unicode="1" horiz-adv-x="752" d="M117 686v92q245 0 276 180h88v-958h-114v686h-250z" />
<glyph unicode="2" horiz-adv-x="752" d="M33 0q12 154 90 250q51 63 178 141q139 86 184 135q62 66 62 158q0 76 -54.5 124t-132.5 48q-94 0 -145 -76q-45 -67 -41 -162h-115q-8 150 76 245t234 95q129 0 214 -73.5t85 -202.5q0 -145 -121 -250q-2 -2 -232 -151q-131 -86 -149 -181h491v-100h-624z" />
<glyph unicode="3" horiz-adv-x="752" d="M41 297h115q4 -96 56 -153.5t148 -57.5q86 0 146.5 50t60.5 134q0 88 -57 136.5t-145 48.5q-29 0 -70 -4v96h49q78 0 130 40t52 115q0 74 -47 114t-123 40q-90 0 -135 -58.5t-45 -148.5h-115q5 142 80.5 225.5t214.5 83.5q131 0 209 -61q84 -68 84 -195q0 -129 -133 -192 v-2q174 -37 174 -232q0 -139 -98 -219q-90 -70 -232 -70q-147 0 -234 81.5t-85 228.5z" />
<glyph unicode="4" horiz-adv-x="752" d="M37 225v111l438 622h92v-632h129v-101h-129v-225h-108v225h-422zM137 326h322v469h-4z" />
<glyph unicode="5" horiz-adv-x="752" d="M47 258h115q4 -76 60.5 -124t142.5 -48t144 58.5t58 166.5q0 97 -60.5 158t-156.5 61q-102 0 -178 -92l-98 6l88 498h473v-100h-387l-51 -277l4 -2q59 68 178 68q135 0 219 -82q90 -88 90 -246q0 -131 -84 -221q-94 -95 -252 -95q-129 0 -213 70q-90 76 -92 201z" />
<glyph unicode="6" horiz-adv-x="752" d="M51 444q0 514 352 514q252 0 271 -245h-115q-16 143 -160 143q-219 0 -233 -362l2 -2q80 124 240 124q135 0 214.5 -87t79.5 -224q0 -125 -69 -213q-86 -105 -252 -105q-330 0 -330 457zM188 299q0 -92 53.5 -152.5t145.5 -60.5q88 0 143 64q50 59 50 147 q0 94 -49.5 155.5t-143.5 61.5t-146.5 -60.5t-52.5 -154.5z" />
<glyph unicode="7" horiz-adv-x="752" d="M68 834v108h620v-98q-145 -146 -249.5 -383.5t-119.5 -460.5h-126q28 467 378 834h-503z" />
<glyph unicode="8" horiz-adv-x="752" d="M53 276q0 181 168 238q-133 55 -133 199q0 114 86 182q78 63 195 63q145 0 223 -75q67 -68 67 -170q0 -138 -133 -199q172 -51 172 -238q0 -135 -90 -212t-229 -77q-143 0 -232 70q-94 78 -94 219zM176 270q0 -84 56.5 -134t146.5 -50q86 0 141 53.5t55 132.5 q0 76 -57 129.5t-139 53.5q-88 0 -145.5 -51.5t-57.5 -133.5zM209 709q0 -76 48 -115t122 -39q70 0 115 41t45 113q0 147 -162 147q-72 0 -120 -39t-48 -108z" />
<glyph unicode="9" horiz-adv-x="752" d="M45 645q0 139 88 226t227 87q330 0 330 -458q0 -513 -334 -513q-266 0 -290 244h114q6 -67 55.5 -106t120.5 -39q209 0 217 369l-2 4q-73 -133 -223 -133q-143 0 -223 88t-80 231zM168 631q0 -82 53 -142.5t135 -60.5q88 0 142.5 61.5t54.5 149.5q0 92 -52 154.5 t-145 62.5q-96 0 -145 -70q-43 -59 -43 -155z" />
<glyph unicode=":" horiz-adv-x="375" d="M113 0v150h149v-150h-149zM113 549v149h149v-149h-149z" />
<glyph unicode=";" horiz-adv-x="375" d="M113 0v150h149v-136q0 -167 -149 -210v68q84 29 80 128h-80zM113 549v149h149v-149h-149z" />
<glyph unicode="&#x3c;" horiz-adv-x="811" d="M61 301v82l689 311v-92l-576 -260l576 -260v-89z" />
<glyph unicode="=" horiz-adv-x="811" d="M66 160v92h679v-92h-679zM66 432v92h679v-92h-679z" />
<glyph unicode="&#x3e;" horiz-adv-x="811" d="M61 -7v89l576 260l-576 260v92l689 -311v-82z" />
<glyph unicode="?" horiz-adv-x="778" d="M61 664q-4 141 87.5 232t244.5 91q139 0 226.5 -71.5t87.5 -198.5q0 -123 -125 -230q-68 -57 -90 -86q-41 -53 -41 -112v-53h-117v63q0 72 45 133q22 31 87.5 90.5t84.5 85.5q37 56 33 121q-6 74 -58.5 116t-132.5 42q-102 0 -159.5 -62.5t-57.5 -160.5h-115zM315 0v150 h156v-150h-156z" />
<glyph unicode="@" horiz-adv-x="1081" d="M57 487q0 209 147.5 354.5t354.5 145.5q191 0 325 -117.5t134 -298.5q0 -163 -111 -284q-98 -107 -205 -107q-81 0 -88 88h-4q-75 -92 -168 -92q-84 0 -138 62.5t-54 152.5q0 148 90 265.5t227 117.5q111 0 152 -110l31 86h86l-115 -385q-14 -48 -14 -68q0 -43 32 -43 q62 0 124.5 101.5t62.5 209.5q0 154 -113 254q-104 94 -254 94q-172 0 -290.5 -127t-118.5 -307q0 -178 122.5 -303t294.5 -125q95 0 186 45t148 119h86q-63 -111 -178 -172.5t-246 -61.5q-213 0 -359.5 145.5t-146.5 360.5zM352 399q0 -57 32 -94t83 -37q84 0 149 103 q62 94 62 186q0 49 -34 87t-77 38q-90 0 -155 -96q-60 -88 -60 -187z" />
<glyph unicode="A" horiz-adv-x="877" d="M-4 0l373 965h141l377 -965h-142l-106 291h-408l-108 -291h-127zM272 399h326l-160 449h-2z" />
<glyph unicode="B" horiz-adv-x="926" d="M104 0v965h351q196 0 256 -35q114 -68 114 -201q0 -158 -143 -217v-2q182 -37 182 -234q0 -112 -73 -190q-82 -86 -220 -86h-467zM233 109h322q84 0 133 47t49 125q0 161 -211 161h-293v-333zM233 551h259q204 0 204 154q0 92 -63 126q-45 25 -141 25h-259v-305z" />
<glyph unicode="C" horiz-adv-x="977" d="M57 479q0 219 117 359q125 149 340 149q158 0 267.5 -82t129.5 -231h-127q-18 100 -92 153.5t-178 53.5q-162 0 -250 -121q-78 -107 -78 -271q0 -178 78 -284q86 -119 250 -119q123 0 199 80q69 74 80 199h129q-19 -183 -127.5 -282t-290.5 -99q-215 0 -336 139 q-111 135 -111 356z" />
<glyph unicode="D" horiz-adv-x="952" d="M104 0v965h332q465 0 465 -459q0 -506 -465 -506h-332zM233 109h213q117 0 197 57q129 92 129 321q0 369 -321 369h-218v-747z" />
<glyph unicode="E" horiz-adv-x="825" d="M104 0v965h668v-109h-539v-305h502v-109h-502v-333h543v-109h-672z" />
<glyph unicode="F" horiz-adv-x="776" d="M104 0v965h635v-109h-506v-305h445v-109h-445v-442h-129z" />
<glyph unicode="G" horiz-adv-x="1026" d="M55 483q0 211 115 351q127 153 348 153q152 0 264 -80q105 -73 156 -200l-119 -41q-86 215 -301 215q-166 0 -256 -127q-80 -109 -80 -271q0 -166 80 -274q90 -125 256 -125q141 0 232 96q77 84 96 221h-332v105h467v-23q0 -213 -117 -352q-127 -147 -346 -147 q-221 0 -348 147q-115 139 -115 352z" />
<glyph unicode="H" horiz-adv-x="977" d="M104 0v965h129v-414h508v414h129v-965h-129v442h-508v-442h-129z" />
<glyph unicode="I" horiz-adv-x="350" d="M111 0v965h129v-965h-129z" />
<glyph unicode="J" horiz-adv-x="545" d="M41 0v119h90q78 0 127 53t49 139v654h127v-684q0 -119 -76.5 -200t-191.5 -81h-125z" />
<glyph unicode="K" horiz-adv-x="901" d="M104 0v965h129v-482l490 482h166l-406 -390l422 -575h-162l-348 487l-162 -149v-338h-129z" />
<glyph unicode="L" horiz-adv-x="752" d="M104 0v965h129v-856h512v-109h-641z" />
<glyph unicode="M" horiz-adv-x="1178" d="M109 0v965h176l303 -811l305 811h176v-965h-121v803h-4l-301 -803h-108l-302 803h-4v-803h-120z" />
<glyph unicode="N" horiz-adv-x="977" d="M104 0v965h136l510 -783h2v783h120v-965h-139l-504 774h-4v-774h-121z" />
<glyph unicode="O" horiz-adv-x="1028" d="M51 483q0 211 117 351q127 153 346 153t346 -153q117 -140 117 -351t-117 -350q-127 -149 -346 -149t-346 149q-117 139 -117 350zM180 483q0 -161 78 -272q92 -125 256 -125t256 125q78 111 78 272q0 162 -78 273q-92 125 -256 125t-256 -125q-78 -111 -78 -273z" />
<glyph unicode="P" horiz-adv-x="877" d="M104 0v965h424q144 0 220.5 -75t76.5 -210t-76.5 -210t-220.5 -75h-295v-395h-129zM233 504h252q211 0 211 176t-211 176h-252v-352z" />
<glyph unicode="Q" horiz-adv-x="1028" d="M51 483q0 211 117 351q127 153 346 153t346 -153q117 -140 117 -351q0 -243 -148 -385l127 -98l-63 -78l-148 113q-98 -51 -231 -51q-219 0 -346 149q-117 139 -117 350zM180 483q0 -161 78 -272q92 -125 256 -125q74 0 133 27l-106 84l67 79l129 -104q111 111 111 311 q0 162 -78 273q-92 125 -256 125t-256 -125q-78 -111 -78 -273z" />
<glyph unicode="R" horiz-adv-x="926" d="M104 0v965h455q293 0 293 -273q0 -184 -184 -246l219 -446h-148l-192 414h-314v-414h-129zM233 520h267q225 0 225 174q0 162 -172 162h-320v-336z" />
<glyph unicode="S" horiz-adv-x="877" d="M49 317h123q0 -114 86 -176q76 -55 195 -55q245 0 245 174q0 109 -159 156q-150 39 -299 76q-160 65 -160 215q0 137 108 213q97 67 242 67q156 0 248 -72q100 -79 106 -233h-120q-21 199 -240 199q-215 0 -215 -166q0 -78 96 -117q35 -16 213 -55q144 -33 211 -80 q96 -70 96 -199q0 -141 -123 -219q-104 -61 -253 -61q-175 0 -281 75q-119 91 -119 258z" />
<glyph unicode="T" horiz-adv-x="776" d="M2 856v109h772v-15q0 -96 -108 -96h-4l-209 2v-856h-129v856h-322z" />
<glyph unicode="U" horiz-adv-x="977" d="M100 348v617h25q104 0 104 -105v-512q0 -262 267 -262q252 0 252 262v617h129v-617q0 -180 -99.5 -272t-281.5 -92q-396 0 -396 364z" />
<glyph unicode="V" horiz-adv-x="825" d="M0 965h137l277 -836h2l278 836h135l-344 -965h-145z" />
<glyph unicode="W" horiz-adv-x="1251" d="M16 965h131l189 -803h4l215 803h139l215 -803h2l197 803h127l-258 -965h-133l-221 811h-2l-224 -811h-133z" />
<glyph unicode="X" horiz-adv-x="825" d="M0 0l336 496l-318 469h154l240 -377l252 377h143l-320 -469l340 -496h-157l-258 399l-269 -399h-143z" />
<glyph unicode="Y" horiz-adv-x="877" d="M2 965h154l288 -459l283 459h145l-368 -570v-395h-129v395z" />
<glyph unicode="Z" horiz-adv-x="825" d="M31 0v109l600 747h-555v109h704v-109l-598 -747h615v-109h-766z" />
<glyph unicode="[" horiz-adv-x="350" d="M98 -262v1249h252v-90h-145v-1067h145v-92h-252z" />
<glyph unicode="\" horiz-adv-x="451" d="M-18 987h92l401 -1003h-100z" />
<glyph unicode="]" horiz-adv-x="350" d="M0 -170h145v1067h-145v90h252v-1249h-252v92z" />
<glyph unicode="^" horiz-adv-x="811" d="M68 356l294 586h87l294 -586h-94l-246 488l-239 -488h-96z" />
<glyph unicode="_" horiz-adv-x="676" d="M0 -94h676v-68h-676v68z" />
<glyph unicode="`" horiz-adv-x="301" d="M-25 987h142l116 -192h-88z" />
<glyph unicode="a" horiz-adv-x="725" d="M49 180q0 107 74 158q49 35 162 57q82 15 166 29q69 18 69 74q0 116 -155 116q-166 0 -175 -133h-114q8 234 295 234q264 0 264 -193v-358q0 -47 4 -60q6 -18 31 -18q20 0 37 6v-90q-31 -12 -84 -12q-97 0 -97 102q-94 -102 -245 -102q-232 0 -232 190zM170 188 q0 -102 135 -102q103 0 164 55q49 45 49 103v116q-31 -24 -129 -36q-110 -15 -147 -31q-72 -29 -72 -105z" />
<glyph unicode="b" horiz-adv-x="801" d="M90 0v965h115v-361h4q53 111 223 111q154 0 242 -109q80 -102 80 -258q0 -158 -80 -256q-86 -102 -240 -102q-158 0 -225 104h-4v-94h-115zM201 350q0 -112 51 -184q59 -80 170 -80q108 0 164 84q45 72 45 186q0 107 -51 179q-60 79 -164 79q-109 0 -166 -82 q-49 -71 -49 -182z" />
<glyph unicode="c" horiz-adv-x="725" d="M49 340q0 166 82 266q88 109 248 109q125 0 203 -58q86 -63 98 -182h-119q-29 139 -174 139q-217 0 -217 -274q0 -107 47 -174q55 -80 158 -80q166 0 192 170h117q-43 -266 -309 -266q-156 0 -241 95t-85 255z" />
<glyph unicode="d" horiz-adv-x="801" d="M49 352q0 156 83 259.5t237 103.5q157 0 225 -109h2v359h115v-965h-115v94h-2q-57 -104 -223 -104q-154 0 -242 104q-80 101 -80 258zM170 344q0 -106 53 -178q58 -80 164 -80q107 0 164 82q49 70 49 180q0 115 -51 187q-57 79 -170 79q-109 0 -162 -84q-47 -71 -47 -186 z" />
<glyph unicode="e" horiz-adv-x="725" d="M49 350q0 160 91 262.5t239 102.5q168 0 254 -137q63 -105 63 -246v-17h-526v-7q0 -93 53 -152q58 -70 164 -70q148 0 180 137l109 -30q-62 -203 -293 -203q-162 0 -250 100q-84 98 -84 260zM170 416h401q-4 84 -60 141t-140 57q-86 0 -140.5 -58t-60.5 -140z" />
<glyph unicode="f" horiz-adv-x="399" d="M16 598v100h117v105q0 174 195 174q41 0 73 -12v-101q-26 10 -65 10q-88 0 -88 -77v-99h135v-100h-135v-598h-115v598h-117z" />
<glyph unicode="g" horiz-adv-x="776" d="M49 346q0 146 70 246q86 123 252 123q147 0 209 -117h2v100h108v-639q0 -338 -325 -338q-113 0 -191 46q-94 55 -98 161h114q5 -57 66 -88q49 -26 115 -26q211 0 211 260v45h-4q-56 -121 -218 -121q-147 0 -233 100q-78 97 -78 248zM170 360q0 -110 43 -180 q51 -86 156 -86q104 0 159 86q47 74 47 185q0 104 -45 172q-53 77 -153 77q-105 0 -158 -77q-49 -68 -49 -177z" />
<glyph unicode="h" horiz-adv-x="752" d="M86 0v965h115v-369h4q51 119 219 119q242 0 242 -256v-459h-115v473q0 66 -39 103.5t-104 37.5q-101 0 -154 -60t-53 -159v-395h-115z" />
<glyph unicode="i" horiz-adv-x="301" d="M94 0v698h115v-698h-115zM94 825v140h115v-140h-115z" />
<glyph unicode="j" horiz-adv-x="322" d="M-66 -170h29q62 0 107 50t45 120v698h114v-704q0 -125 -72.5 -197.5t-185.5 -72.5h-37v106zM115 825v140h114v-140h-114z" />
<glyph unicode="k" horiz-adv-x="702" d="M94 0v965h115v-572l317 305h156l-279 -254l299 -444h-147l-240 365l-106 -101v-264h-115z" />
<glyph unicode="l" horiz-adv-x="301" d="M94 0v965h115v-965h-115z" />
<glyph unicode="m" horiz-adv-x="1153" d="M86 0v698h109v-102h2q77 119 227 119q151 0 190 -119q76 119 220 119q233 0 233 -203v-512h-115v459q0 155 -135 155q-82 0 -132 -49t-50 -129v-436h-117v459q0 155 -131 155q-90 0 -143 -69q-43 -56 -43 -109v-436h-115z" />
<glyph unicode="n" horiz-adv-x="752" d="M86 0v698h109v-110h2q71 127 227 127q242 0 242 -256v-459h-115v473q0 66 -39 103.5t-104 37.5q-101 0 -154 -60t-53 -159v-395h-115z" />
<glyph unicode="o" horiz-adv-x="776" d="M49 348q0 162 86 260q92 107 252 107q162 0 254 -107q86 -98 86 -260q0 -160 -86 -258q-92 -100 -254 -100q-160 0 -252 100q-86 98 -86 258zM170 348q0 -121 62.5 -191.5t154.5 -70.5q94 0 156.5 69.5t62.5 192.5t-62.5 194.5t-156.5 71.5q-92 0 -154.5 -71.5 t-62.5 -194.5z" />
<glyph unicode="p" horiz-adv-x="801" d="M90 -262v960h115v-94h4q53 111 223 111q154 0 242 -109q80 -102 80 -258q0 -158 -80 -256q-86 -102 -240 -102q-158 0 -225 104h-4v-356h-115zM201 350q0 -112 51 -184q59 -80 170 -80q108 0 164 84q45 72 45 186q0 107 -51 179q-60 79 -164 79q-109 0 -166 -82 q-49 -71 -49 -182z" />
<glyph unicode="q" horiz-adv-x="801" d="M49 352q0 156 83 259.5t237 103.5q157 0 225 -109h2v92h115v-960h-115v356h-2q-57 -104 -223 -104q-154 0 -242 104q-80 101 -80 258zM170 344q0 -106 53 -178q58 -80 164 -80q107 0 164 82q49 70 49 180q0 115 -51 187q-57 79 -170 79q-109 0 -162 -84q-47 -71 -47 -186 z" />
<glyph unicode="r" horiz-adv-x="451" d="M82 0v698h115v-100q68 103 199 103q11 0 22 -1l33 -2v-104h-33q-82 0 -151.5 -80t-69.5 -158v-356h-115z" />
<glyph unicode="s" horiz-adv-x="676" d="M41 221h117q6 -135 186 -135q170 0 170 102q0 60 -72 91q-28 12 -157 40q-107 25 -156 58q-72 49 -72 139q0 98 84 152q74 47 176 47q275 0 287 -219h-115q-10 118 -161 118q-150 0 -150 -90q0 -53 76 -82q20 -8 154 -39q108 -24 157 -59q70 -49 70 -139q0 -115 -96 -174 q-78 -41 -201 -41q-287 0 -297 231z" />
<glyph unicode="t" horiz-adv-x="446" d="M12 598v100h119v211h115v-211h139v-100h-139v-334q0 -71 40 -117.5t99 -46.5h31v-100h-47q-107 0 -172.5 70.5t-65.5 183.5v344h-119z" />
<glyph unicode="u" horiz-adv-x="752" d="M86 240v458h31q86 0 86 -90v-325q0 -90 24 -131q39 -66 152 -66q108 0 147 66q23 41 23 131v415h117v-458q0 -121 -75 -185.5t-212 -64.5q-141 0 -217 63.5t-76 186.5z" />
<glyph unicode="v" horiz-adv-x="676" d="M18 698h129l197 -581h2l191 581h120l-256 -698h-122z" />
<glyph unicode="w" horiz-adv-x="1024" d="M23 698h127l157 -571h4l140 571h127l145 -571h2l158 571h118l-223 -698h-121l-143 555h-2l-141 -555h-123z" />
<glyph unicode="x" horiz-adv-x="700" d="M12 0l262 369l-243 329h147l168 -243l174 243h137l-239 -321l270 -377h-147l-195 289l-194 -289h-140z" />
<glyph unicode="y" horiz-adv-x="676" d="M10 698h125l211 -571l197 571h123l-377 -972h-117l117 278z" />
<glyph unicode="z" horiz-adv-x="649" d="M31 0v88l420 510h-394v100h543v-77l-428 -521h446v-100h-587z" />
<glyph unicode="{" horiz-adv-x="451" d="M66 313v93q43 0 76.5 46t33.5 113v246q0 80 49 131q43 45 99 45h94v-80h-68q-65 0 -65 -116v-248q0 -82 -47 -135q-31 -35 -70 -46v-4q37 -4 70 -41q47 -51 47 -141v-239q0 -117 65 -117h68v-82h-94q-56 0 -99 45q-49 53 -49 133v240q0 69 -35 116q-32 41 -75 41z" />
<glyph unicode="|" horiz-adv-x="301" d="M104 -16v1003h93v-1003h-93z" />
<glyph unicode="}" horiz-adv-x="451" d="M33 -180h67q66 0 66 117v239q0 82 47 135q33 37 70 47v4q-37 5 -70 41q-47 50 -47 140v245q0 119 -66 119h-67v80h94q55 0 98 -45q47 -51 47 -131v-246q0 -71 34 -115t79 -44v-93q-45 0 -79 -45t-34 -112v-240q0 -80 -47 -133q-43 -45 -98 -45h-94v82z" />
<glyph unicode="~" horiz-adv-x="811" d="M94 309q60 117 168 117q51 0 150 -43q125 -55 139 -55q53 0 119 104l47 -67q-80 -117 -168 -117q-55 0 -137 45q-95 51 -156 51q-66 0 -115 -102z" />
<glyph unicode="&#xa4;" horiz-adv-x="840" d="M8 164l76 -76l145 148q82 -62 193 -62q53 0 105.5 18.5t82.5 43.5l150 -148l71 76l-145 145q59 78 59 193q0 110 -59 188l145 150l-71 71l-150 -145q-32 27 -82.5 43t-105.5 16q-115 0 -193 -59l-145 145l-76 -71l148 -150q-62 -74 -62 -188q0 -111 62 -193zM197 502 q0 88 65 160q64 67 160 67q49 0 89 -18.5t69.5 -49t46 -72.5t16.5 -87q0 -101 -63 -164q-66 -68 -158 -68q-98 0 -162 68q-63 70 -63 164z" />
<glyph unicode="&#xa9;" horiz-adv-x="1081" d="M33 485q0 211 149.5 356.5t360.5 145.5q209 0 357.5 -145.5t148.5 -356.5q0 -215 -148.5 -359.5t-357.5 -144.5q-211 0 -360.5 144.5t-149.5 359.5zM125 485q0 -186 120 -310t298 -124q176 0 294.5 124t118.5 310q0 181 -119.5 304.5t-293.5 123.5q-178 0 -298 -123.5 t-120 -304.5zM258 483q0 138 80 223t217 85q98 0 169 -53.5t85 -151.5h-86q-10 57 -56 94t-112 37q-96 0 -150.5 -65.5t-54.5 -166.5q0 -98 57.5 -167.5t151.5 -69.5q66 0 110 38t54 99h86q-21 -98 -89.5 -155.5t-160.5 -57.5q-135 0 -218 88t-83 223z" />
<glyph unicode="&#xab;" horiz-adv-x="627" d="M68 315v121l204 162v-117l-135 -106l135 -105v-116zM332 315v121l207 162v-117l-136 -106l136 -105v-116z" />
<glyph unicode="&#xac;" horiz-adv-x="758" d="M35 297h604v-178h82v268h-686v-90z" />
<glyph unicode="&#xad;" horiz-adv-x="811" d="M66 297v90h679v-90h-679z" />
<glyph unicode="&#xae;" horiz-adv-x="1081" d="M33 485q0 211 149.5 356.5t360.5 145.5q209 0 357.5 -145.5t148.5 -356.5q0 -215 -148.5 -359.5t-357.5 -144.5q-211 0 -360.5 144.5t-149.5 359.5zM125 485q0 -186 120 -310t298 -124q176 0 294.5 124t118.5 310q0 181 -118.5 304.5t-294.5 123.5q-178 0 -298 -122.5 t-120 -305.5zM344 188v590h229q207 0 207 -168q0 -143 -155 -161l168 -261h-99l-159 254h-99v-254h-92zM436 516h96q78 0 109 14q47 21 47 84q0 91 -129 91h-123v-189z" />
<glyph unicode="&#xb0;" horiz-adv-x="541" d="M66 713q0 -43 16 -80t43.5 -64.5t63.5 -43t77 -15.5q43 0 80.5 16t65 43.5t43.5 64.5t16 79t-16 79t-43.5 64t-65 43t-80.5 16q-42 0 -78.5 -16.5t-63.5 -44t-42.5 -64.5t-15.5 -77zM121 713q0 31 11 57.5t30.5 46t46 30.5t57.5 11t58 -11.5t47.5 -31t32.5 -46t12 -56.5 q0 -59 -45 -105q-45 -43 -105 -43q-30 0 -56.5 12t-46 32t-31 47t-11.5 57z" />
<glyph unicode="&#xb6;" horiz-adv-x="727" d="M0 858q0 152 94 229q90 66 248 66h389v-41h-102v-1357h-62v1357h-145v-1357h-55v806q-168 0 -263 62q-104 73 -104 235z" />
<glyph unicode="&#xb7;" horiz-adv-x="338" d="M96 449q0 -33 21 -54q11 -11 24.5 -15.5t28.5 -4.5q29 0 50.5 21.5t21.5 52.5q0 29 -20.5 50t-51.5 21q-33 0 -53 -20q-21 -24 -21 -51z" />
<glyph unicode="&#xbb;" horiz-adv-x="627" d="M88 154v116l135 105l-135 106v117l205 -162v-121zM352 154v116l135 105l-135 106v117l207 -162v-121z" />
<glyph unicode="&#xd7;" horiz-adv-x="811" d="M96 98l246 246l-244 242l64 65l246 -243l241 243l66 -65l-244 -242l246 -246l-66 -65l-243 246l-246 -246z" />
<glyph unicode="&#xf7;" horiz-adv-x="811" d="M66 297v90h679v-90h-679zM319 63q0 35 26 61t61 26q34 0 60 -26t26 -61q0 -32 -26 -57t-58 -25q-35 0 -62 24t-27 58zM319 621q0 34 26 60t61 26q34 0 60 -26t26 -60q0 -33 -26 -59.5t-58 -26.5q-35 0 -62 25.5t-27 60.5z" />
<glyph unicode="&#xe00;" horiz-adv-x="205" />
<glyph unicode="&#xe01;" horiz-adv-x="817" d="M72 0v559q0 113 84 191q92 86 250 86q159 0 253 -86q86 -78 86 -191v-559h-133v535q0 94 -63 145q-55 45 -143 45q-87 0 -140 -45q-61 -51 -61 -145v-535h-133z" />
<glyph unicode="&#xe02;" horiz-adv-x="758" d="M72 244v225q0 74 65.5 122t65.5 73q0 53 -101 53h-30v102h100q160 0 166 -127q4 -82 -64.5 -136t-68.5 -103v-195q0 -164 174 -164t174 164v561h133v-575q0 -123 -80 -190t-227 -67q-148 0 -227.5 67t-79.5 190z" />
<glyph unicode="&#xe03;" horiz-adv-x="758" d="M51 700v119h74l57 -41l60 41h88v-96q0 -82 -62.5 -135t-62.5 -113v-217q0 -164 174 -164t174 164v561h133v-575q0 -123 -80 -190t-227 -67q-148 0 -227.5 67t-79.5 190v258q0 67 62.5 114.5t62.5 79.5v4h-146z" />
<glyph unicode="&#xe04;" horiz-adv-x="817" d="M72 0v565q0 113 89 192t247 79q159 0 251 -82q86 -76 86 -189v-565h-133v547q0 88 -63 137q-55 41 -141 41q-84 0 -140 -41q-63 -49 -63 -137v-88h192v-119h-192v-340h-133z" />
<glyph unicode="&#xe05;" horiz-adv-x="817" d="M72 0v604q0 94 63.5 155.5t153.5 76.5l119 -93l120 93q90 -15 153.5 -76.5t63.5 -155.5v-604h-133v600q0 78 -71 109l-133 -99l-132 99q-71 -31 -71 -109v-141h192v-119h-192v-340h-133z" />
<glyph unicode="&#xe06;" horiz-adv-x="817" d="M51 700v119h74l57 -41l60 41h88v-96q0 -82 -62.5 -135t-62.5 -113v-166q0 -80 67.5 -151.5t161.5 -71.5q178 0 178 201v532h133v-563q0 -113 -63 -186q-70 -79 -195 -79q-178 0 -282 120v-111h-133v502q0 67 62.5 114.5t62.5 79.5v4h-146z" />
<glyph unicode="&#xe07;" horiz-adv-x="760" d="M31 819h141l102 -708h115q186 0 186 329q0 275 -206 262v117h65q275 0 275 -375q0 -444 -273 -444h-286z" />
<glyph unicode="&#xe08;" horiz-adv-x="756" d="M16 584q19 104 105 176q94 76 233 76q174 0 267 -115q86 -107 84 -291q-5 -205 -83.5 -317.5t-222.5 -112.5h-245l-41 309q-11 70 -60 70h-22v106h121q71 0 81 -71l41 -303h95q77 0 133 69q69 86 69 250q0 295 -221 295q-69 0 -122.5 -39t-67.5 -102h-144z" />
<glyph unicode="&#xe09;" horiz-adv-x="801" d="M31 379v106h102q76 0 76 -73v-144q0 -182 168 -182q94 0 160 74q59 67 59 149v217q0 201 -215 201q-70 0 -127 -37q-64 -41 -76 -106h-141q12 108 111.5 180t238.5 72q156 0 249 -77t93 -198v-561h-133v111q-104 -120 -272 -120q-248 0 -248 247v94q0 47 -33 47h-12z" />
<glyph unicode="&#xe0a;" horiz-adv-x="750" d="M72 0v819h133v-713h112q240 0 240 207q0 101 -53 156t-142 55v97q195 0 195 198h141q0 -198 -182 -246v-2q182 -67 182 -276q0 -150 -94 -227q-86 -71 -233 -69z" />
<glyph unicode="&#xe0b;" horiz-adv-x="750" d="M51 700v119h74l57 -41l60 41h88v-96q0 -82 -62.5 -135t-62.5 -113v-369h112q240 0 240 207q0 101 -53 156t-142 55v97q195 0 195 198h141q0 -198 -182 -246v-2q182 -67 182 -276q0 -150 -94 -227q-86 -71 -233 -69l-299 1v502q0 67 62.5 114.5t62.5 79.5v4h-146z" />
<glyph unicode="&#xe0c;" horiz-adv-x="1329" d="M57 600q25 100 113 166q96 70 236 70q165 0 258 -80q81 -72 81 -189v-286q0 -88 58.5 -137.5t146.5 -49.5q174 0 174 191v534h133v-569q0 -123 -72.5 -191t-189.5 -68q-166 0 -250 99v-90h-133v547q0 84 -60 131t-146 47q-70 0 -125.5 -31.5t-73.5 -81.5l100 -65 q-39 -15 -70.5 -48.5t-31.5 -66.5v-317h123v-115h-256v420q0 37 27.5 70.5t64.5 48.5z" />
<glyph unicode="&#xe0d;" horiz-adv-x="1309" d="M57 600q25 100 113 166q96 70 236 70q165 0 258 -80q81 -72 81 -189v-297q0 -182 164 -182q74 0 134.5 57.5t60.5 145.5v528h133v-756q0 -283 -324 -283h-301v117h293q199 0 199 152v31q-94 -91 -244 -91q-108 0 -178 60t-70 174v324q0 84 -60 131t-146 47 q-70 0 -125.5 -31.5t-73.5 -81.5l100 -65q-39 -15 -70.5 -48.5t-31.5 -66.5v-317h123v-115h-256v420q0 37 27.5 70.5t64.5 48.5z" />
<glyph unicode="&#xe0e;" horiz-adv-x="827" d="M0 0v115h82v305q0 37 27.5 70.5t64.5 48.5l-106 61q24 100 112 166q96 70 236 70q166 0 258 -80q82 -72 82 -189v-840h-269l-100 73l-98 -73h-207v110h178l127 88l127 -88h109v710q0 84 -60.5 131t-146.5 47q-70 0 -125 -31.5t-74 -81.5l100 -65q-38 -15 -70 -48.5 t-32 -66.5v-432h-215z" />
<glyph unicode="&#xe0f;" horiz-adv-x="827" d="M0 0v115h82v305q0 37 27.5 70.5t64.5 48.5l-106 61q24 100 112 166q96 70 236 70q166 0 258 -80q82 -72 82 -189v-840h-248l-100 73l-99 -73h-227v192h129v-82h70l127 88l127 -88h88v710q0 84 -60.5 131t-146.5 47q-70 0 -125 -31.5t-74 -81.5l100 -65q-38 -15 -70 -48.5 t-32 -66.5v-432h-215z" />
<glyph unicode="&#xe10;" horiz-adv-x="756" d="M16 584q19 104 105 176q94 76 233 76q82 0 144 -25q34 29 39 70h161q-14 -82 -112 -123q123 -109 119 -328q-5 -205 -83.5 -317.5t-222.5 -112.5h-245l-41 309q-11 70 -60 70h-22v106h121q71 0 81 -71l41 -303h95q77 0 133 69q69 86 69 250q0 295 -221 295 q-69 0 -122.5 -39t-67.5 -102h-144zM72 -163h157l127 88l127 -88h72v80h133v-190h-231l-101 73l-98 -73h-186v110z" />
<glyph unicode="&#xe11;" horiz-adv-x="815" d="M51 700v119h74l57 -41l60 41h88v-96q0 -82 -62.5 -135t-62.5 -113v-278l346 622h74q118 0 118 -123v-696h-133v684l-381 -684h-157v502q0 67 62.5 114.5t62.5 79.5v4h-146z" />
<glyph unicode="&#xe12;" horiz-adv-x="1356" d="M51 420q0 192 99.5 303t255.5 96l102 -94l117 94h147v-538q0 -88 58.5 -137.5t146.5 -49.5q174 0 174 191v534h133v-569q0 -123 -72.5 -191t-189.5 -68q-166 0 -250 99v-90h-133v700l-131 -112l-127 112q-66 5 -123 -57q-72 -78 -72 -217q0 -166 97 -248q75 -63 176 -57 v-121q-183 -9 -295.5 105t-112.5 315z" />
<glyph unicode="&#xe13;" horiz-adv-x="1315" d="M57 600q25 100 113 166q96 70 236 70q165 0 258 -80q81 -72 81 -189v-282q0 -191 175 -191q88 0 146 49.5t58 137.5v538h133v-819h-133v90q-84 -99 -250 -99q-116 0 -189 68t-73 191v297q0 84 -60 131t-146 47q-70 0 -125.5 -31.5t-73.5 -81.5l100 -65 q-39 -15 -70.5 -48.5t-31.5 -66.5v-317h123v-115h-256v420q0 37 27.5 70.5t64.5 48.5z" />
<glyph unicode="&#xe14;" horiz-adv-x="829" d="M51 416q0 170 101 284q108 123 288 121l318 -2v-819h-133v705l-154 2q-123 2 -199 -72q-86 -80 -86 -236q0 -149 97 -225q77 -61 182 -53v-121q-184 -9 -295 90q-119 111 -119 326z" />
<glyph unicode="&#xe15;" horiz-adv-x="844" d="M51 420q0 192 99.5 303t255.5 96l102 -94l117 94h147v-819h-133v700l-131 -112l-127 112q-66 5 -123 -57q-72 -78 -72 -217q0 -166 97 -248q75 -63 176 -57v-121q-183 -9 -295.5 105t-112.5 315z" />
<glyph unicode="&#xe16;" horiz-adv-x="817" d="M57 600q25 100 113 166q96 70 236 70q165 0 258 -80q81 -72 81 -189v-567h-133v547q0 84 -60 131t-146 47q-70 0 -125.5 -31.5t-73.5 -81.5l100 -65q-39 -15 -70.5 -48.5t-31.5 -66.5v-317h123v-115h-256v420q0 37 27.5 70.5t64.5 48.5z" />
<glyph unicode="&#xe17;" horiz-adv-x="817" d="M72 0v819h133v-110q90 122 264 122q133 0 209 -81q67 -74 67 -187v-563h-133v532q0 201 -178 201q-94 0 -164 -80q-65 -71 -65 -153v-500h-133z" />
<glyph unicode="&#xe18;" horiz-adv-x="793" d="M47 594q0 104 93 173t241 69q149 0 246.5 -69t105.5 -183h-139q-12 67 -73.5 104t-145.5 37q-88 0 -141.5 -36t-53.5 -87q0 -63 144 -86q223 -37 264 -53q143 -55 143 -197v-266h-670v369h134v-258h403v135q0 102 -143 133q-131 20 -265 43q-143 41 -143 172z" />
<glyph unicode="&#xe19;" horiz-adv-x="817" d="M72 256v563h51q82 0 82 -90v-442q0 -201 178 -201q94 0 161.5 71.5t67.5 151.5v510h133v-819h-133v111q-104 -120 -282 -120q-125 0 -195 79q-63 73 -63 186z" />
<glyph unicode="&#xe1a;" horiz-adv-x="817" d="M72 254v565h51q82 0 82 -90v-457q0 -88 63 -137q56 -41 140 -41q86 0 141 41q63 49 63 137v547h133v-565q0 -113 -86 -188q-92 -79 -251 -79q-158 0 -250 79q-86 75 -86 188z" />
<glyph unicode="&#xe1b;" horiz-adv-x="817" d="M72 254v565h51q82 0 82 -90v-457q0 -88 63 -137q56 -41 140 -41q86 0 141 41q63 49 63 137v752h133v-770q0 -113 -86 -188q-92 -79 -251 -79q-158 0 -250 79q-86 75 -86 188z" />
<glyph unicode="&#xe1c;" horiz-adv-x="954" d="M29 819h231v-98h-86l78 -535h4l172 633h102l172 -633h5l94 633h129l-127 -819h-160l-162 606h-4l-162 -606h-159z" />
<glyph unicode="&#xe1d;" horiz-adv-x="954" d="M29 819h231v-98h-86l78 -535h4l172 633h102l172 -633h5l129 854h129l-162 -1040h-160l-162 606h-4l-162 -606h-159z" />
<glyph unicode="&#xe1e;" horiz-adv-x="954" d="M29 819h131l92 -633h4l172 633h102l172 -633h5l94 633h129l-127 -819h-160l-162 606h-4l-162 -606h-159z" />
<glyph unicode="&#xe1f;" horiz-adv-x="954" d="M29 819h131l92 -633h4l172 633h102l172 -633h5l127 838h129l-160 -1024h-160l-162 606h-4l-162 -606h-159z" />
<glyph unicode="&#xe20;" horiz-adv-x="827" d="M0 0v115h82v305q0 37 27.5 70.5t64.5 48.5l-106 61q24 100 112 166q96 70 236 70q166 0 258 -80q82 -72 82 -189v-567h-133v547q0 84 -60.5 131t-146.5 47q-70 0 -125 -31.5t-74 -81.5l100 -65q-38 -15 -70 -48.5t-32 -66.5v-432h-215z" />
<glyph unicode="&#xe21;" horiz-adv-x="817" d="M72 0v819h51q82 0 82 -90v-420q0 -80 67.5 -151.5t161.5 -71.5q178 0 178 201v532h133v-563q0 -113 -63 -186q-70 -79 -195 -79q-178 0 -282 120v-111h-133z" />
<glyph unicode="&#xe22;" horiz-adv-x="809" d="M41 223q0 82 47 143.5t119 79.5v5q-144 30 -144 178q0 82 60.5 138t157.5 54l106 -2v-114l-31 2q-67 4 -110 -23t-43 -78q0 -106 184 -102v-115q-82 4 -141.5 -35t-59.5 -106q0 -139 211 -135l207 4v702h133v-819l-426 -1q-270 -2 -270 224z" />
<glyph unicode="&#xe23;" horiz-adv-x="770" d="M41 256h139q15 -164 213 -164q82 0 138.5 38t56.5 101q0 97 -139 131q-130 27 -259 56q-139 49 -139 180q0 104 91 171t235 67q145 0 238.5 -68t105.5 -184h-135q-13 71 -78 110q-57 33 -135 33q-76 0 -129 -31q-60 -34 -60 -90q0 -69 140 -98q221 -45 258 -62 q139 -61 139 -210q0 -249 -340 -249q-148 0 -238 64q-98 72 -102 205z" />
<glyph unicode="&#xe24;" horiz-adv-x="817" d="M57 600q25 100 113 166q96 70 236 70q165 0 258 -80q81 -72 81 -189v-810h-133v790q0 84 -60 131t-146 47q-70 0 -125.5 -31.5t-73.5 -81.5l100 -65q-39 -15 -70.5 -48.5t-31.5 -66.5v-317h123v-115h-256v420q0 37 27.5 70.5t64.5 48.5z" />
<glyph unicode="&#xe25;" horiz-adv-x="811" d="M51 266q0 105 69.5 180.5t168.5 92.5q41 6 82 6q141 0 235 -74v94q0 78 -58.5 119t-141.5 41q-170 0 -201 -131h-139q10 102 103 172t232 70q162 0 250 -70t88 -184v-582h-133v238q0 90 -64.5 145t-156.5 55q-80 0 -137 -45q-64 -49 -66 -127q-2 -67 44 -111t122 -44 q23 0 45 4v-115l-49 -3q-139 -12 -219 66q-74 76 -74 203z" />
<glyph unicode="&#xe26;" horiz-adv-x="827" d="M0 0v115h82v305q0 37 27.5 70.5t64.5 48.5l-106 61q24 100 112 166q96 70 236 70q166 0 258 -80q82 -72 82 -189v-810h-133v790q0 84 -60.5 131t-146.5 47q-70 0 -125 -31.5t-74 -81.5l100 -65q-38 -15 -70 -48.5t-32 -66.5v-432h-215z" />
<glyph unicode="&#xe27;" horiz-adv-x="772" d="M41 240h145q15 -56 65 -93.5t116 -37.5q211 0 211 301t-211 301q-66 0 -116 -38t-65 -93h-145q12 108 103.5 182t226.5 74q350 0 350 -426q0 -423 -350 -423q-135 0 -226.5 72t-103.5 181z" />
<glyph unicode="&#xe28;" horiz-adv-x="817" d="M72 0v565q0 113 89 192t247 79q88 0 155 -25q35 27 39 70h162q-14 -78 -109 -123q90 -74 90 -193v-565h-133v547q0 88 -63 137q-55 41 -141 41q-84 0 -140 -41q-63 -49 -63 -137v-88h192v-119h-192v-340h-133z" />
<glyph unicode="&#xe29;" horiz-adv-x="817" d="M72 254v565h133v-547q0 -88 63 -137q56 -41 140 -41q86 0 141 41q63 49 63 137v148q-24 -82 -108 -82q-45 0 -79 34t-34 79q0 47 34 79.5t79 32.5q84 0 108 -84v340h133v-565q0 -113 -86 -188q-92 -79 -251 -79q-158 0 -250 79q-86 75 -86 188z" />
<glyph unicode="&#xe2a;" horiz-adv-x="811" d="M51 266q0 105 69.5 180.5t168.5 92.5q41 6 82 6q141 0 235 -74v94q0 78 -58.5 119t-141.5 41q-170 0 -201 -131h-139q10 102 103 172t232 70q97 0 166 -25q35 29 39 70h162q-14 -78 -109 -121q80 -68 80 -178v-582h-133v238q0 90 -64.5 145t-156.5 55q-80 0 -137 -45 q-64 -49 -66 -127q-2 -67 44 -111t122 -44q23 0 45 4v-115l-49 -3q-139 -12 -219 66q-74 76 -74 203z" />
<glyph unicode="&#xe2b;" horiz-adv-x="817" d="M72 0v819h133v-229q96 96 215 115h-103v114h428v-114h-184q184 -29 184 -234v-471h-133v422q0 186 -145 186q-90 0 -176 -81t-86 -158v-369h-133z" />
<glyph unicode="&#xe2c;" horiz-adv-x="954" d="M29 819h131l92 -633h4l172 633h102l172 -633h5l67 451q2 20 2 37q0 88 -96 104v82q139 17 149 139q2 17 2 25h132l-7 -41q-20 -143 -131 -162v-4q84 -22 84 -119q0 -12 -2 -26l-104 -672h-160l-162 606h-4l-162 -606h-159z" />
<glyph unicode="&#xe2d;" horiz-adv-x="899" d="M51 412q0 20 2 45.5t381 25.5v-110h-237q10 -137 88 -207q67 -62 164 -62q106 0 176 70q82 82 82 238q0 155 -82 235q-70 68 -176 68q-170 0 -232 -160l-135 39q88 242 367 242q184 0 291.5 -116t107.5 -308q0 -195 -107.5 -310t-291.5 -115q-183 0 -290.5 115 t-107.5 310z" />
<glyph unicode="&#xe2e;" horiz-adv-x="899" d="M51 412q0 20 2 45.5t381 25.5v-110h-237q10 -137 88 -207q67 -62 164 -62q106 0 176 70q82 82 82 238q0 155 -82 235q-70 68 -176 68q-170 0 -232 -160l-135 39q88 242 367 242q88 0 161 -29q35 29 39 74h162q-14 -82 -113 -123q150 -111 150 -346q0 -195 -107.5 -310 t-291.5 -115q-183 0 -290.5 115t-107.5 310z" />
<glyph unicode="&#xe2f;" horiz-adv-x="762" d="M51 676q0 65 41 106t103 39l75 -2v-92h-20q-64 0 -64 -55q0 -76 113 -76q84 0 160 59q84 68 96 164h135v-819h-133v631q-92 -131 -295 -131q-88 0 -149.5 47t-61.5 129z" />
<glyph unicode="&#xe30;" horiz-adv-x="487" d="M72 102v187h133v-82h211v-105h-344zM72 530v187h133v-82h211v-105h-344z" />
<glyph unicode="&#xe31;" d="M-421 922v188h133v-76h470v-112h-603z" />
<glyph unicode="&#xe32;" horiz-adv-x="477" d="M31 696v123h90q285 0 285 -327v-492h-134v469q0 227 -180 227h-61z" />
<glyph unicode="&#xe33;" horiz-adv-x="477" d="M-239 1026q0 39 29 66.5t76 27.5t74.5 -27.5t27.5 -66.5t-27.5 -66.5t-74.5 -27.5t-76 27.5t-29 66.5zM31 696v123h90q285 0 285 -327v-492h-134v469q0 227 -180 227h-61z" />
<glyph unicode="&#xe34;" d="M-728 922v112h659v-24q0 -88 -88 -88h-571z" />
<glyph unicode="&#xe35;" d="M-728 922v112h526v103h133v-215h-659z" />
<glyph unicode="&#xe36;" d="M-728 922v112h471q4 99 123 99t119 -107q0 -43 -32 -73.5t-87 -30.5h-594z" />
<glyph unicode="&#xe37;" d="M-728 922v112h332v103h133v-103h61v103h133v-215h-659z" />
<glyph unicode="&#xe38;" d="M-302 -58h233v-267h-133v150h-100v117z" />
<glyph unicode="&#xe39;" d="M-491 -58h177v-103q0 -49 55 -49q57 0 57 49v103h133v-103q0 -82 -44 -112.5t-146 -30.5q-109 0 -149 31.5t-40 117.5h-43v97z" />
<glyph unicode="&#xe3a;" d="M-232 -149q0 39 27.5 65t68.5 26t68.5 -26t27.5 -65q0 -36 -27.5 -63t-68.5 -27t-68.5 27t-27.5 63z" />
<glyph unicode="&#xe3f;" horiz-adv-x="926" d="M104 0v965h312v112h73v-112q164 0 222 -35q114 -70 114 -201q0 -158 -143 -217v-2q182 -37 182 -234q0 -112 -73 -190q-82 -86 -220 -86h-82v-130h-73v130h-312zM233 109h183v333h-183v-333zM233 551h183v305h-183v-305zM489 109h66q84 0 133 47t49 125q0 161 -211 161 h-37v-333zM489 551h3q204 0 204 154q0 92 -63 126q-45 25 -141 25h-3v-305z" />
<glyph unicode="&#xe40;" horiz-adv-x="358" d="M113 0v819h133v-819h-133z" />
<glyph unicode="&#xe41;" horiz-adv-x="594" d="M113 0v819h133v-819h-133zM348 0v819h133v-819h-133z" />
<glyph unicode="&#xe42;" horiz-adv-x="399" d="M57 1130q0 130 160 130q45 0 104.5 -10.5t108.5 -10.5q59 0 100 10v-104q-30 -10 -84 -10q-43 0 -113.5 8t-90.5 8q-52 0 -52 -29q0 -12 38 -54t38 -95v-973h-133v944q0 47 -38 94t-38 92z" />
<glyph unicode="&#xe43;" horiz-adv-x="399" d="M-95 1073v29q0 168 199 168h58q194 0 198 -140q2 -71 -46 -118t-48 -92v-920h-133v936q0 55 51.5 97t51.5 77q0 64 -99 64h-6q-98 0 -98 -87v-14h-128z" />
<glyph unicode="&#xe44;" horiz-adv-x="399" d="M-128 1147v104q41 -10 100 -10q40 0 100.5 9.5t99.5 9.5q170 0 170 -130q0 -47 -38 -94t-38 -92v-944h-133v973q0 45 38 84t38 57q0 35 -64 35q-22 0 -86 -6t-103 -6q-53 0 -84 10z" />
<glyph unicode="&#xe45;" horiz-adv-x="539" d="M31 696v123h135q147 0 227 -96q74 -86 74 -231v-735h-133v712q0 102 -52.5 164.5t-152.5 62.5h-98z" />
<glyph unicode="&#xe46;" horiz-adv-x="772" d="M51 612q0 207 191 207h59l115 -110l121 110h163v-1062h-133v952l-159 -152l-140 141q-82 9 -82 -90q0 -82 78 -82q15 0 27 4v-110q-33 -4 -60 -4q-180 0 -180 196z" />
<glyph unicode="&#xe47;" d="M-673 922v100q0 176 223 176h342v-94h-344q-90 0 -90 -62v-24h97l104 61l104 -61h129v-96h-145l-88 59l-92 -59h-240z" />
<glyph unicode="&#xe48;" d="M-202 1188v205h133v-205h-133z" />
<glyph unicode="&#xe49;" d="M-355 1307v92h86q96 0 96 -82v-29h257v-100h-386v88q0 31 -31 31h-22z" />
<glyph unicode="&#xe4a;" d="M-394 1188v90q0 121 137 121h27l71 -47l66 47h26q133 0 133 -111v-12h102v-88h-220v88q0 22 -27 29l-80 -64l-90 64q-26 -7 -26 -27v-90h-119z" />
<glyph unicode="&#xe4b;" d="M-290 1276v90h94v90h121v-90h93v-90h-93v-88h-121v88h-94z" />
<glyph unicode="&#xe4c;" d="M-263 1116v55q0 132 147 132h116v-101h-87q-51 0 -51 -45v-41h-125z" />
<glyph unicode="&#xe4d;" d="M-239 1026q0 39 29 66.5t76 27.5t74.5 -27.5t27.5 -66.5t-27.5 -66.5t-74.5 -27.5t-76 27.5t-29 66.5z" />
<glyph unicode="&#xe4e;" d="M-453 1133q0 42 24 75.5t66 53.5q35 21 82 24q-43 21 -43 74q0 21 9.5 42.5t26.5 41t40.5 35.5t50.5 26q54 23 118 28t134 5h25v-100q-26 2 -46 3t-34 1q-43 0 -82.5 -5t-68.5 -15.5t-45.5 -26.5t-16.5 -37q0 -29 29.5 -35t91.5 -6v-94q-20 2 -35.5 3t-28.5 1 q-40 0 -74 -6t-59.5 -16.5t-40 -26t-14.5 -33.5q0 -29 49 -29q31 0 58.5 9.5t58.5 23.5l49 -82q-35 -19 -80 -33t-90 -14q-5 2 -9 2h-7h-11q-57 6 -92 36.5t-35 74.5z" />
<glyph unicode="&#xe4f;" horiz-adv-x="983" d="M72 410q0 174 122.5 296.5t297.5 122.5q174 0 296.5 -122.5t122.5 -296.5t-122.5 -295.5t-296.5 -121.5q-175 0 -297.5 121.5t-122.5 295.5zM133 410q0 -148 105.5 -253.5t253.5 -105.5q147 0 252.5 105.5t105.5 253.5q0 147 -105.5 252.5t-252.5 105.5 q-148 0 -253.5 -105.5t-105.5 -252.5zM236 410q0 106 74.5 181t181.5 75q106 0 181 -75t75 -181q0 -107 -75 -181.5t-181 -74.5q-107 0 -181.5 74.5t-74.5 181.5z" />
<glyph unicode="&#xe50;" horiz-adv-x="764" d="M51 309q0 140 85 228t245 88t250 -90q84 -86 84 -226q0 -141 -84 -227q-90 -89 -250 -89t-248 89q-82 86 -82 227zM190 309q0 -92 51.5 -148.5t139.5 -56.5t141 56.5t53 148.5q0 90 -53 145.5t-141 55.5t-139.5 -54.5t-51.5 -146.5z" />
<glyph unicode="&#xe51;" horiz-adv-x="764" d="M51 381q0 102 88 173t228 71q163 0 255.5 -86t90.5 -232q-4 -151 -112.5 -235.5t-285.5 -88.5q-112 -2 -209 17l-22 111q111 -31 211 -25q133 8 209 72q69 59 69 151q0 195 -206 195q-78 0 -127.5 -36t-49.5 -87q0 -94 119 -94q21 0 43 4v-113l-30 -4q-27 -4 -52 -4 q-96 0 -153 49q-66 55 -66 162z" />
<glyph unicode="&#xe52;" horiz-adv-x="961" d="M0 768l115 61q88 -43 88 -147v-571h557v391l-129 -119l-135 111q-78 0 -78 -103q0 -90 104 -82v-102l-12 -2q-37 -6 -66 -6q-155 0 -159 178q-6 225 178 225h63l101 -84l98 84h164v-602h-817v641q0 86 -72 127z" />
<glyph unicode="&#xe53;" horiz-adv-x="780" d="M51 297q0 156 59.5 240t155.5 84h45l119 -93l119 86h156v-614h-136v496l-139 -111l-135 113q-35 2 -62 -37q-38 -53 -38 -162q0 -117 45 -156q32 -30 110 -24v-119l-49 -1q-250 -10 -250 298z" />
<glyph unicode="&#xe54;" horiz-adv-x="809" d="M51 283q0 145 87 226t243 81h240v229h135v-338h-314q-252 0 -252 -190q0 -195 281 -180q-84 20 -84 100q0 45 33 75.5t84 30.5t84 -30.5t33 -75.5q0 -80 -82 -100h198v-111h-370q-142 0 -224 66q-92 73 -92 217z" />
<glyph unicode="&#xe55;" horiz-adv-x="819" d="M51 283q0 131 73 210.5t204 94.5q-58 28 -58 94q0 47 40 80t98 33q57 0 97 -33t40 -80q0 -61 -53 -92h149v229h135v-338h-334q-252 0 -252 -190q0 -195 281 -180q-84 20 -84 100q0 45 33 75.5t84 30.5t84 -30.5t33 -75.5q0 -80 -82 -100h198v-111h-370q-142 0 -224 66 q-92 73 -92 217z" />
<glyph unicode="&#xe56;" horiz-adv-x="762" d="M0 768l115 61q88 -32 88 -133v-188q22 39 80.5 67.5t130.5 28.5q299 0 299 -305q0 -306 -332 -306q-297 0 -305 224h139q10 -117 172 -117q186 0 186 199t-186 199q-63 0 -107 -30t-55 -65h-153v250q0 80 -72 115z" />
<glyph unicode="&#xe57;" horiz-adv-x="1034" d="M51 297q0 156 59.5 240t155.5 84h45l119 -93l119 86h156v-503q131 0 131 147v416q0 100 92 155l100 -61q-65 -53 -65 -129v-430q0 -210 -236 -209h-158v496l-139 -111l-135 113q-35 2 -62 -37q-38 -53 -38 -162q0 -117 45 -156q32 -30 110 -24v-119l-49 -1 q-250 -10 -250 298z" />
<glyph unicode="&#xe58;" horiz-adv-x="776" d="M51 297q0 293 287 293h231v229h136v-338h-308q-112 0 -159.5 -43t-47.5 -141q0 -156 76 -176l146 139l157 -149v151h136v-262h-173l-122 127l-121 -127h-64q-75 -1 -124.5 77.5t-49.5 219.5z" />
<glyph unicode="&#xe59;" horiz-adv-x="881" d="M51 293q0 297 240 297h153l64 -152l35 92q22 60 92 60h59v121q0 86 82 118l109 -69q-54 -35 -54 -98v-183h-145q-37 0 -53 -53l-29 -94q-26 -86 -4 -142l74 -190h-135l-185 479q-86 4 -121 -28q-43 -41 -43 -156q0 -111 41 -150q35 -34 119 -26v-119l-49 -1 q-141 -6 -201 75q-49 69 -49 219z" />
<glyph unicode="&#xe5a;" horiz-adv-x="1036" d="M61 688q0 -41 17.5 -74.5t48.5 -57.5t73 -37t91 -13q83 0 162 29q38 17 71.5 37.5t59.5 43.5v-616h118v752q0 39 -18 51q-16 16 -51 16h-51q-9 -42 -31 -77t-52.5 -61t-69.5 -43.5t-83 -23.5q11 17 17 35.5t6 38.5q0 66 -42.5 103.5t-111.5 37.5q-34 0 -62 -11.5 t-48.5 -31t-32 -45t-11.5 -53.5zM152 688q0 62 63 62q29 0 46.5 -18.5t17.5 -43.5q0 -61 -64 -61q-32 5 -47.5 18.5t-15.5 42.5zM805 0h119v819h-119v-819z" />
<glyph unicode="&#xe5b;" horiz-adv-x="1393" d="M61 414q0 149 70 243q35 50 80.5 74.5t99.5 24.5q44 0 82.5 -18.5t67.5 -52t46 -79.5t17 -100q0 -43 -10 -78.5t-28.5 -60.5t-43.5 -38.5t-55 -13.5q-24 0 -46.5 10.5t-39.5 28.5t-27 42.5t-10 52.5q0 27 10 51t27 43t38.5 30t45.5 11l21 -2q-35 80 -93 80 q-32 0 -59.5 -19t-47.5 -53t-32 -81t-12 -103t13.5 -100t37.5 -74.5t57.5 -47t73.5 -16.5q47 0 88.5 24.5t75 69.5t57 109.5t35.5 144.5q4 25 8.5 41t11 25t15.5 12.5t22 3.5q10 0 22.5 -11.5t25.5 -32t26 -47.5t25 -58l12 73q15 58 41 58q19 0 45.5 -32.5t46.5 -86.5 q8 42 19.5 62t25.5 20q23 0 46.5 -29.5t47.5 -77.5q13 38 24.5 58t31.5 20q14 0 30.5 -18.5t30.5 -44.5q8 17 20 23.5t27 4.5l111 -14q18 0 35.5 -10t17.5 -21q0 -12 -17.5 -23.5t-37.5 -13.5l-103 -10q-6 -20 -19 -38.5t-30 -18.5q-14 0 -31 22q-5 5 -11 17t-17 30 q-11 -37 -27 -64.5t-33 -27.5q-14 0 -31 28.5t-40 76.5q-8 -29 -15 -50.5t-12 -33.5q-18 -41 -39 -41q-19 0 -47 63q-8 17 -14.5 35t-14.5 35q-6 -28 -16 -56t-22 -50.5t-24 -37t-22 -14.5q-34 0 -45 35q-5 19 -6.5 31.5t-3.5 23.5q-3 21 -18 62q-17 -68 -45.5 -127.5 t-65.5 -98.5q-100 -112 -227 -112q-62 0 -112 24.5t-86 68.5t-55.5 106.5t-19.5 138.5zM336 449q0 -26 14.5 -43t34.5 -17q49 0 49 60q0 61 -49 61q-19 0 -34 -17.5t-15 -43.5z" />
<glyph unicode="&#x2000;" horiz-adv-x="799" />
<glyph unicode="&#x2001;" horiz-adv-x="1599" />
<glyph unicode="&#x2002;" horiz-adv-x="799" />
<glyph unicode="&#x2003;" horiz-adv-x="1599" />
<glyph unicode="&#x2004;" horiz-adv-x="533" />
<glyph unicode="&#x2005;" horiz-adv-x="399" />
<glyph unicode="&#x2006;" horiz-adv-x="266" />
<glyph unicode="&#x2007;" horiz-adv-x="266" />
<glyph unicode="&#x2008;" horiz-adv-x="199" />
<glyph unicode="&#x2009;" horiz-adv-x="319" />
<glyph unicode="&#x200a;" horiz-adv-x="88" />
<glyph unicode="&#x2010;" horiz-adv-x="526" d="M68 322v108h391v-108h-391z" />
<glyph unicode="&#x2011;" horiz-adv-x="526" d="M68 322v108h391v-108h-391z" />
<glyph unicode="&#x2012;" horiz-adv-x="526" d="M68 322v108h391v-108h-391z" />
<glyph unicode="&#x2013;" horiz-adv-x="811" d="M66 297v90h679v-90h-679z" />
<glyph unicode="&#x2014;" horiz-adv-x="1622" d="M66 297v90h1490v-90h-1490z" />
<glyph unicode="&#x2018;" horiz-adv-x="375" d="M113 616v150q0 86 37.5 142.5t111.5 56.5v-68q-78 0 -78 -131h80v-150h-151z" />
<glyph unicode="&#x2019;" horiz-adv-x="375" d="M113 616v68q80 0 80 131h-80v150h149v-150q0 -86 -35 -139q-41 -60 -114 -60z" />
<glyph unicode="&#x201c;" horiz-adv-x="575" d="M90 616v150q0 199 148 199v-68q-78 0 -78 -131h80v-150h-150zM336 616v150q0 86 38 142.5t111 56.5v-68q-77 0 -77 -131h79v-150h-151z" />
<glyph unicode="&#x201d;" horiz-adv-x="575" d="M90 616v68q78 0 78 131h-78v150h150v-150q0 -86 -35 -139q-41 -60 -115 -60zM336 815v150h151v-150q0 -86 -34 -139q-41 -60 -115 -60v68q78 0 78 131h-80z" />
<glyph unicode="&#x2022;" horiz-adv-x="758" d="M72 410q0 127 90 217t217 90t217 -90t90 -217t-90 -217.5t-217 -90.5t-217 90.5t-90 217.5z" />
<glyph unicode="&#x2026;" horiz-adv-x="1352" d="M150 0v150h151v-150h-151zM600 0v150h150v-150h-150zM1051 0v150h149v-150h-149z" />
<glyph unicode="&#x202f;" horiz-adv-x="319" />
<glyph unicode="&#x205f;" horiz-adv-x="399" />
<glyph unicode="&#x25fc;" horiz-adv-x="700" d="M0 0v700h700v-700h-700z" />
<glyph unicode="&#xf700;" horiz-adv-x="756" d="M16 584q19 104 105 176q94 76 233 76q82 0 144 -25q34 29 39 70h161q-14 -82 -112 -123q123 -109 119 -328q-5 -205 -83.5 -317.5t-222.5 -112.5h-245l-41 309q-11 70 -60 70h-22v106h121q71 0 81 -71l41 -303h95q77 0 133 69q69 86 69 250q0 295 -221 295 q-69 0 -122.5 -39t-67.5 -102h-144z" />
<glyph unicode="&#xf701;" d="M-861 922v112h577v-24q0 -88 -88 -88h-489z" />
<glyph unicode="&#xf702;" d="M-861 922v112h444v103h133v-215h-577z" />
<glyph unicode="&#xf703;" d="M-861 922v112h389q4 99 123 99t119 -107q0 -43 -32 -73.5t-87 -30.5h-512z" />
<glyph unicode="&#xf704;" d="M-861 922v112h250v103h133v-103h61v103h133v-215h-577z" />
<glyph unicode="&#xf705;" d="M-456 922v245h133v-245h-133z" />
<glyph unicode="&#xf706;" d="M-560 1055v102h96q107 0 107 -92v-31h350v-112h-494v86q0 47 -45 47h-14z" />
<glyph unicode="&#xf707;" d="M-742 922v100q0 135 153 135h29l80 -53l73 53h29q150 0 150 -123v-10h221v-102h-354v98q0 27 -31 33l-88 -72l-101 72q-28 -6 -28 -31v-100h-133z" />
<glyph unicode="&#xf708;" d="M-611 1018v102h106v99h133v-99h109v-102h-109v-96h-133v96h-106z" />
<glyph unicode="&#xf709;" d="M-542 922v61q0 145 166 145h131v-112h-100q-57 0 -57 -49v-45h-140z" />
<glyph unicode="&#xf70a;" d="M-202 922v245h133v-245h-133z" />
<glyph unicode="&#xf70b;" d="M-413 1055v102h97q106 0 106 -92v-31h306v-112h-449v86q0 47 -45 47h-15z" />
<glyph unicode="&#xf70c;" d="M-648 922v100q0 135 153 135h29l80 -53l74 53h28q150 0 150 -123v-14h115v-98h-248v98q0 27 -31 33l-88 -72l-100 72q-29 -6 -29 -31v-100h-133z" />
<glyph unicode="&#xf70d;" d="M-417 1018v102h107v99h133v-99h108v-102h-108v-96h-133v96h-107z" />
<glyph unicode="&#xf70e;" d="M-294 922v61q0 145 166 145h128v-112h-97q-58 0 -58 -49v-45h-139z" />
<glyph unicode="&#xf70f;" horiz-adv-x="1309" d="M57 600q25 100 113 166q96 70 236 70q165 0 258 -80q81 -72 81 -189v-295q0 -178 179 -178q180 0 180 178v547h133v-565q0 -117 -74 -188q-82 -79 -239 -79q-156 0 -238 79q-74 71 -74 188v293q0 84 -60 131t-146 47q-70 0 -125.5 -31.5t-73.5 -81.5l100 -65 q-39 -15 -70.5 -48.5t-31.5 -66.5v-317h123v-115h-256v420q0 37 27.5 70.5t64.5 48.5z" />
<glyph unicode="&#xf710;" d="M-609 922v188h133v-76h507v-112h-640z" />
<glyph unicode="&#xf711;" d="M-454 1026q0 39 29 66.5t76 27.5t74.5 -27.5t27.5 -66.5t-27.5 -66.5t-74.5 -27.5t-76 27.5t-29 66.5z" />
<glyph unicode="&#xf712;" d="M-828 922v100q0 176 223 176h342v-94h-344q-90 0 -90 -62v-24h96l104 61l105 -61h129v-96h-146l-88 59l-92 -59h-239z" />
<glyph unicode="&#xf713;" d="M-417 1188v205h133v-205h-133z" />
<glyph unicode="&#xf714;" d="M-570 1307v92h86q96 0 96 -82v-29h260v-100h-389v88q0 31 -31 31h-22z" />
<glyph unicode="&#xf715;" d="M-609 1188v90q0 121 137 121h27l71 -47l66 47h26q136 0 136 -111v-12h102v-88h-223v88q0 22 -27 29l-80 -64l-90 64q-27 -7 -27 -27v-90h-118z" />
<glyph unicode="&#xf716;" d="M-505 1276v90h94v90h121v-90h96v-90h-96v-88h-121v88h-94z" />
<glyph unicode="&#xf717;" d="M-478 1116v55q0 132 147 132h119v-101h-90q-51 0 -51 -45v-41h-125z" />
<glyph unicode="&#xf718;" d="M-302 -314h233v-267h-133v150h-100v117z" />
<glyph unicode="&#xf719;" d="M-491 -314h177v-103q0 -49 55 -49q57 0 57 49v103h133v-103q0 -82 -44 -112.5t-146 -30.5q-109 0 -149 31.5t-40 117.5h-43v97z" />
<glyph unicode="&#xf71a;" d="M-261 -405q0 39 27.5 65t68.5 26t68.5 -26t27.5 -65q0 -36 -27.5 -63t-68.5 -27t-68.5 27t-27.5 63z" />
<glyph unicode="&#xf71b;" d="M-478 -3h478v1211h-478v-1211z" />
<glyph unicode="&#xf71c;" horiz-adv-x="471" />
<glyph unicode="&#xf71d;" horiz-adv-x="471" d="M38 0v-192h34v72q17 11 36 17t40 6h166q53 0 86 -27v-68h33v192h-395z" />
<glyph horiz-adv-x="1599" d="M100 0h1399v1599h-1399v-1599zM201 100v1399h1200v-1399h-1200z" />
</font>
</defs>
</svg>
